<?xml version="1.0" standalone="no"?>
<!DOCTYPE svg PUBLIC "-//W3C//DTD SVG 20010904//EN"
 "http://www.w3.org/TR/2001/REC-SVG-20010904/DTD/svg10.dtd">
<svg version="1.0" xmlns="http://www.w3.org/2000/svg"
 width="2000.000000pt" height="936.000000pt" viewBox="0 0 2000.000000 936.000000"
 preserveAspectRatio="xMidYMid meet">

<g transform="translate(0.000000,936.000000) scale(0.100000,-0.100000)"
fill="#000000" stroke="none">
<path d="M5055 6808 c-11 -6 -23 -16 -27 -22 -4 -6 -4 -99 -1 -206 7 -227 -8
-447 -43 -664 -39 -236 -64 -325 -227 -801 -99 -286 -107 -402 -43 -583 56
-158 110 -254 458 -807 193 -308 313 -514 425 -735 55 -109 60 -115 91 -118
80 -8 81 41 1 200 -118 235 -233 430 -525 888 -263 414 -344 575 -367 732 -15
103 -1 180 64 368 28 80 74 215 104 300 134 389 195 798 181 1220 -7 192 -7
195 -32 218 -29 25 -32 26 -59 10z"/>
<path d="M12540 6130 c0 -275 -2 -500 -5 -500 -2 0 -44 39 -92 88 -70 69 -106
96 -175 130 -403 201 -943 2 -1148 -423 -101 -209 -124 -494 -60 -746 107
-424 515 -715 935 -669 202 23 342 88 470 219 33 33 63 61 67 61 4 0 9 -57 10
-127 l3 -128 190 0 190 0 3 1298 2 1297 -195 0 -195 0 0 -500z m-449 -560 c93
-17 212 -84 279 -157 62 -68 128 -185 151 -268 19 -67 19 -303 0 -370 -53
-189 -208 -350 -385 -400 -84 -24 -269 -17 -347 13 -153 60 -291 206 -340 361
-29 92 -36 261 -15 361 66 313 355 515 657 460z"/>
<path d="M14980 6190 l0 -290 -114 0 c-95 0 -115 -3 -120 -16 -3 -9 -6 -73 -6
-144 0 -71 3 -135 6 -144 5 -13 25 -16 119 -16 l113 0 5 -537 c3 -511 5 -541
24 -605 60 -192 197 -336 383 -400 72 -25 215 -34 310 -19 90 14 234 80 298
138 l42 38 -75 129 c-42 72 -78 132 -80 134 -2 3 -29 -14 -58 -36 -67 -52
-123 -72 -201 -72 -81 0 -159 38 -198 95 -56 81 -58 115 -56 646 l3 484 243 3
242 2 0 160 0 160 -245 0 -245 0 0 290 0 290 -195 0 -195 0 0 -290z"/>
<path d="M4338 6193 c-8 -10 -32 -63 -53 -118 -58 -156 -158 -337 -239 -433
l-36 -44 0 32 c0 39 -27 144 -46 182 -11 22 -21 28 -48 28 -46 0 -66 -26 -66
-84 0 -112 -79 -244 -210 -347 -99 -78 -168 -121 -391 -242 -96 -52 -210 -116
-254 -143 -141 -86 -271 -228 -347 -379 -56 -110 -113 -309 -100 -344 18 -49
73 -119 128 -165 148 -122 384 -206 844 -301 294 -60 399 -88 485 -130 101
-48 169 -107 232 -203 67 -101 103 -120 141 -74 21 27 14 55 -37 137 -70 114
-150 192 -249 243 l-82 43 34 67 c95 191 137 459 107 684 -21 158 -91 361
-160 464 l-31 45 89 87 c94 93 147 165 203 277 71 140 143 383 174 586 16 104
16 110 -1 129 -22 25 -67 26 -87 3z m-753 -1254 c-37 -116 -57 -489 -35 -652
13 -103 41 -231 64 -294 8 -24 11 -43 6 -43 -4 0 -62 11 -127 26 -399 86 -607
168 -719 286 l-55 58 31 59 c109 203 400 415 765 557 75 29 78 29 70 3z m373
-79 c62 -92 81 -272 33 -311 -31 -26 -38 -24 -76 14 -41 41 -66 122 -66 212 0
75 7 105 30 121 22 17 52 3 79 -36z"/>
<path d="M6110 5920 c-327 -46 -627 -276 -738 -568 -72 -186 -86 -446 -37
-660 32 -136 116 -294 209 -390 66 -70 194 -162 281 -203 135 -64 211 -81 382
-86 236 -8 387 22 563 113 97 50 250 166 250 190 0 9 -48 68 -106 131 l-107
114 -51 -49 c-96 -90 -219 -143 -380 -163 -217 -26 -419 37 -558 176 -55 54
-105 150 -114 217 l-7 48 729 2 729 3 -1 195 c-1 278 -33 410 -134 561 -88
128 -264 261 -418 315 -150 52 -349 74 -492 54z m305 -354 c80 -22 126 -45
181 -90 103 -83 152 -175 161 -303 l6 -73 -532 0 -531 0 0 38 c0 95 55 217
131 289 76 72 207 131 349 157 41 8 182 -3 235 -18z"/>
<path d="M8502 5919 c-186 -24 -375 -136 -475 -283 l-42 -61 -5 160 -5 160
-190 0 -190 0 0 -930 0 -930 190 0 190 0 6 565 c5 530 7 569 26 625 29 88 56
134 110 190 99 102 188 143 332 152 131 9 251 -27 312 -94 39 -41 77 -120 96
-199 14 -58 17 -158 22 -654 l6 -585 190 0 190 0 5 570 c6 558 6 571 28 635
12 35 33 83 47 106 31 53 124 138 185 169 170 86 413 69 531 -37 57 -52 87
-105 122 -218 7 -23 13 -247 16 -630 l6 -595 193 0 193 0 -1 639 c0 615 -1
643 -21 730 -58 246 -230 433 -450 490 -327 85 -640 -11 -859 -263 -29 -33
-56 -59 -60 -56 -4 2 -24 34 -46 71 -67 115 -192 211 -323 249 -55 16 -190 36
-234 34 -18 -1 -61 -5 -95 -10z"/>
<path d="M14355 5905 c-149 -38 -305 -153 -414 -305 l-46 -65 -3 183 -2 182
-193 -2 -192 -3 -3 -932 -2 -933 194 0 195 0 3 488 c4 465 5 491 26 567 76
275 240 419 502 441 l80 7 0 117 c0 64 -3 151 -6 193 l-7 77 -41 -1 c-23 0
-63 -6 -91 -14z"/>
<path d="M17206 5905 c-156 -43 -320 -169 -422 -324 l-29 -45 -5 180 -5 179
-195 0 -195 0 0 -930 0 -930 195 0 195 0 6 495 c6 549 6 551 77 700 44 93 150
204 232 242 61 29 187 58 250 58 l40 0 0 195 0 195 -47 -1 c-27 0 -70 -7 -97
-14z"/>
</g>
</svg>
